<svg width="12" height="12" viewBox="0 0 12 12" fill="none" xmlns="http://www.w3.org/2000/svg">
<path d="M6 0.312126C5.01211 0.312418 4.04133 0.56994 3.1832 1.05935C2.32506 1.54876 1.60916 2.25318 1.10594 3.10329C0.602721 3.9534 0.329535 4.91989 0.313271 5.90764C0.297007 6.89539 0.538225 7.87035 1.01318 8.73656L0.545349 10.3721C0.502363 10.5221 0.500316 10.681 0.53942 10.8321C0.578523 10.9832 0.657353 11.1211 0.76773 11.2315C0.878106 11.3418 1.01601 11.4207 1.16713 11.4598C1.31825 11.4989 1.47708 11.4968 1.62714 11.4538L3.26306 10.9873C4.02338 11.4045 4.86902 11.6423 5.73534 11.6825C6.60165 11.7227 7.46569 11.5643 8.26141 11.2195C9.05713 10.8746 9.76345 10.3523 10.3264 9.69256C10.8893 9.03284 11.2939 8.25313 11.5093 7.41305C11.7247 6.57298 11.7451 5.69478 11.5691 4.84559C11.393 3.9964 11.0251 3.19871 10.4935 2.51351C9.96185 1.82831 9.2806 1.27374 8.50179 0.892196C7.72298 0.510652 6.86724 0.312239 6 0.312126ZM7.75 7.31213H4.25C4.13396 7.31213 4.02268 7.26603 3.94064 7.18398C3.85859 7.10194 3.8125 6.99066 3.8125 6.87463C3.8125 6.75859 3.85859 6.64731 3.94064 6.56527C4.02268 6.48322 4.13396 6.43713 4.25 6.43713H7.75C7.86603 6.43713 7.97731 6.48322 8.05936 6.56527C8.1414 6.64731 8.1875 6.75859 8.1875 6.87463C8.1875 6.99066 8.1414 7.10194 8.05936 7.18398C7.97731 7.26603 7.86603 7.31213 7.75 7.31213ZM7.75 5.56213H4.25C4.13396 5.56213 4.02268 5.51603 3.94064 5.43399C3.85859 5.35194 3.8125 5.24066 3.8125 5.12463C3.8125 5.00859 3.85859 4.89731 3.94064 4.81527C4.02268 4.73322 4.13396 4.68713 4.25 4.68713H7.75C7.86603 4.68713 7.97731 4.73322 8.05936 4.81527C8.1414 4.89731 8.1875 5.00859 8.1875 5.12463C8.1875 5.24066 8.1414 5.35194 8.05936 5.43399C7.97731 5.51603 7.86603 5.56213 7.75 5.56213Z" fill="black"/>
</svg>
