<svg width="16" height="16" viewBox="0 0 16 16" fill="none" xmlns="http://www.w3.org/2000/svg">
<path d="M15.3399 6.50097L15.3399 6.50098L15.3417 6.50647C15.3842 6.63477 15.3871 6.77289 15.35 6.90286C15.3129 7.03279 15.2376 7.14855 15.1338 7.23507C15.1338 7.23509 15.1337 7.2351 15.1337 7.23512L11.9534 9.88209L11.7127 10.0824L11.7879 10.3864L12.7975 14.47L12.7975 14.47L12.799 14.4758C12.833 14.6065 12.8267 14.7444 12.781 14.8714C12.7353 14.9985 12.6523 15.1088 12.5428 15.1879L12.5411 15.1892C12.4378 15.2645 12.3142 15.3069 12.1865 15.3109C12.0587 15.3148 11.9328 15.2801 11.8251 15.2113L11.8234 15.2103L8.27705 12.9636L8.26488 12.9559L8.25229 12.9489C8.20092 12.9203 8.09324 12.8713 7.95067 12.8849C7.83529 12.8959 7.75176 12.9438 7.71245 12.9704L4.42732 15.0515L4.42648 15.0521C4.2988 15.1333 4.14963 15.1742 3.99837 15.1695C3.84712 15.1648 3.70078 15.1147 3.57841 15.0257L3.57724 15.0248C3.44801 14.9314 3.35 14.8011 3.29605 14.651C3.24209 14.5009 3.23471 14.338 3.27487 14.1837L3.27555 14.181L4.22587 10.4429L4.30294 10.1397L4.06406 9.93782L0.869231 7.23738L0.869239 7.23737L0.866545 7.23512C0.762714 7.1486 0.687341 7.03282 0.650241 6.90286C0.61314 6.77289 0.616032 6.63477 0.658539 6.50647L0.658571 6.50648L0.660327 6.50097C0.70005 6.37626 0.77644 6.26642 0.879529 6.18577C0.98262 6.10513 1.10762 6.05743 1.23823 6.0489L5.39088 5.7792L5.70537 5.75877L5.82259 5.46623L7.39474 1.54302L7.39476 1.54303L7.3967 1.53805C7.4439 1.41652 7.52667 1.31206 7.6342 1.23833C7.74162 1.16467 7.86875 1.1251 7.99899 1.12479H7.9995C7.99953 1.12479 7.99956 1.12479 7.99959 1.12479C8.13018 1.12483 8.25772 1.16431 8.36549 1.23806C8.4733 1.31183 8.5563 1.41644 8.60363 1.53819L8.60361 1.5382L8.60496 1.54158L10.154 5.44227L10.2701 5.73456L10.5838 5.75651L14.7597 6.04875L14.762 6.0489C14.8926 6.05743 15.0176 6.10513 15.1207 6.18577C15.2238 6.26642 15.3002 6.37626 15.3399 6.50097Z" stroke="#FFD600"/>
</svg>
