<svg width="17" height="16" viewBox="0 0 17 16" fill="none" xmlns="http://www.w3.org/2000/svg">
<path d="M4.0625 14.5312C4.0625 14.6981 4.01302 14.8613 3.9203 15C3.82759 15.1388 3.69581 15.2469 3.54164 15.3108C3.38746 15.3746 3.21781 15.3913 3.05414 15.3588C2.89047 15.3262 2.74013 15.2459 2.62213 15.1279C2.50413 15.0099 2.42377 14.8595 2.39121 14.6959C2.35866 14.5322 2.37537 14.3625 2.43923 14.2084C2.50309 14.0542 2.61123 13.9224 2.74999 13.8297C2.88874 13.737 3.05187 13.6875 3.21875 13.6875C3.44253 13.6875 3.65714 13.7764 3.81537 13.9346C3.97361 14.0929 4.0625 14.3075 4.0625 14.5312ZM5.1875 11.7187C5.02062 11.7187 4.85749 11.7682 4.71874 11.8609C4.57998 11.9537 4.47184 12.0854 4.40798 12.2396C4.34412 12.3938 4.32741 12.5634 4.35996 12.7271C4.39252 12.8908 4.47288 13.0411 4.59088 13.1591C4.70888 13.2771 4.85922 13.3575 5.02289 13.39C5.18656 13.4226 5.35621 13.4059 5.51039 13.342C5.66456 13.2782 5.79634 13.17 5.88905 13.0313C5.98177 12.8925 6.03125 12.7294 6.03125 12.5625C6.03125 12.3387 5.94236 12.1241 5.78412 11.9659C5.62589 11.8076 5.41128 11.7187 5.1875 11.7187ZM0.96875 11.4375C0.801872 11.4375 0.638742 11.487 0.499988 11.5797C0.361234 11.6724 0.253088 11.8042 0.189227 11.9584C0.125366 12.1125 0.108657 12.2822 0.141213 12.4459C0.173769 12.6095 0.254128 12.7599 0.372129 12.8779C0.49013 12.9959 0.640471 13.0762 0.804143 13.1088C0.967814 13.1413 1.13746 13.1246 1.29164 13.0608C1.44581 12.9969 1.57759 12.8888 1.6703 12.75C1.76302 12.6113 1.8125 12.4481 1.8125 12.2812C1.8125 12.0575 1.72361 11.8429 1.56537 11.6846C1.40714 11.5264 1.19253 11.4375 0.96875 11.4375ZM3.78125 10.3125C3.78125 10.1456 3.73177 9.98249 3.63905 9.84373C3.54634 9.70498 3.41456 9.59684 3.26039 9.53297C3.10621 9.46911 2.93656 9.4524 2.77289 9.48496C2.60922 9.51752 2.45888 9.59788 2.34088 9.71588C2.22288 9.83388 2.14252 9.98422 2.10996 10.1479C2.07741 10.3116 2.09412 10.4812 2.15798 10.6354C2.22184 10.7896 2.32998 10.9213 2.46874 11.014C2.60749 11.1068 2.77062 11.1562 2.9375 11.1562C3.16128 11.1562 3.37589 11.0674 3.53412 10.9091C3.69236 10.7509 3.78125 10.5363 3.78125 10.3125ZM16.4375 0.749997H14.4205C14.2727 0.749591 14.1263 0.778506 13.9897 0.835068C13.8532 0.891631 13.7292 0.974718 13.625 1.07952L11.6672 3.03728L2.79818 4.51546C2.59429 4.54945 2.40371 4.63895 2.24735 4.77415C2.09099 4.90934 1.9749 5.085 1.91182 5.28184C1.84874 5.47869 1.84111 5.6891 1.88977 5.89C1.93843 6.09089 2.04149 6.27449 2.18765 6.42066L9.07934 13.3123C9.22549 13.4585 9.4091 13.5616 9.60999 13.6102C9.81089 13.6589 10.0213 13.6513 10.2182 13.5882C10.415 13.5251 10.5907 13.409 10.7259 13.2527C10.8611 13.0963 10.9506 12.9057 10.9845 12.7018L12.4627 3.83279V3.83276L14.4205 1.875H16.4375C16.5867 1.875 16.7298 1.81573 16.8352 1.71024C16.9407 1.60475 17 1.46168 17 1.3125C17 1.16331 16.9407 1.02024 16.8352 0.914749C16.7298 0.80926 16.5867 0.749997 16.4375 0.749997Z" fill="#4163BB"/>
</svg>
